<?xml version="1.0" encoding="iso-8859-1"?>
<!-- Uploaded to: SVG Repo, www.svgrepo.com, Generator: SVG Repo Mixer Tools -->
<svg height="800px" width="800px" version="1.1" id="Layer_1" xmlns="http://www.w3.org/2000/svg" xmlns:xlink="http://www.w3.org/1999/xlink" 
	 viewBox="0 0 344.773 344.773" xml:space="preserve">
<g id="XMLID_1690_">
	<circle id="XMLID_1691_" style="fill:#5FD2DB;" cx="172.386" cy="81" r="81"/>
	<g id="XMLID_1692_">
		<g id="XMLID_1693_">
			<path id="XMLID_1694_" style="fill:#FFE165;" d="M212.025,39.274c-0.075,0.582-0.118,1.174-0.118,1.776v40.237
				c0,7.616,6.232,13.848,13.848,13.848l0,0c7.616,0,13.848-6.232,13.848-13.848V41.05c0-0.602-0.043-1.193-0.119-1.776H212.025z"/>
			<path id="XMLID_1695_" style="fill:#FFE165;" d="M159.012,25.14c-0.075,0.582-0.118,1.174-0.118,1.776v40.237
				c0,7.616,6.232,13.848,13.848,13.848l0,0c7.616,0,13.848-6.232,13.848-13.848V26.915c0-0.602-0.043-1.193-0.119-1.776
				L159.012,25.14L159.012,25.14z"/>
			<path id="XMLID_1696_" style="fill:#FFE165;" d="M185.4,39.274v20.969c0,7.616,6.232,13.848,13.848,13.848l0,0
				c7.616,0,13.848-6.231,13.848-13.848V39.274H185.4z"/>
			<path id="XMLID_1697_" style="fill:#FFE165;" d="M132.387,28.592V49.56c0,7.616,6.232,13.848,13.848,13.848l0,0
				c7.616,0,13.848-6.231,13.848-13.848V28.592H132.387z"/>
		</g>
		<path id="XMLID_1698_" style="fill:#FFE165;" d="M245.452,46c-13.058-27.211-40.866-46-73.065-46S112.38,18.789,99.322,46H245.452
			z"/>
	</g>
	<path id="XMLID_580_" style="fill:#FFE165;" d="M249.73,121.723L183.636,337.89c-2.806,9.177-19.693,9.177-22.499,0L95.042,121.723
		H249.73z"/>
	<path id="XMLID_579_" style="fill:#FFA250;" d="M247.669,145.773H97.103c-5.938,0-10.752-4.814-10.752-10.752v-17.965
		c0-5.938,4.814-10.752,10.752-10.752h150.566c5.938,0,10.752,4.814,10.752,10.752v17.965
		C258.422,140.959,253.608,145.773,247.669,145.773z"/>
</g>
</svg>