<svg width="23" height="17" viewBox="0 0 23 17" fill="none" xmlns="http://www.w3.org/2000/svg">
<path fill-rule="evenodd" clip-rule="evenodd" d="M0.5 0.5C0.223858 0.5 0 0.723858 0 1C0 1.27614 0.223858 1.5 0.5 1.5H4.08051C4.83783 5.79147 5.60333 10.0643 6.24931 14.3709C6.43288 15.5947 7.48416 16.5 8.72165 16.5H18.8597C20.0514 16.5 21.0774 15.6588 21.3111 14.4903L22.7503 7.29417C22.936 6.36599 22.226 5.5 21.2795 5.5H6.66046C6.3575 5.5 6.07797 5.58901 5.84436 5.74093L4.99239 0.913107C4.95023 0.674179 4.74262 0.5 4.5 0.5H0.5ZM6.166 7.07417C6.12065 6.77187 6.35478 6.5 6.66046 6.5H21.2795C21.595 6.5 21.8316 6.78866 21.7698 7.09806L20.3305 14.2942C20.1903 14.9953 19.5747 15.5 18.8597 15.5H8.72165C7.97916 15.5 7.34839 14.9568 7.23825 14.2225L6.166 7.07417Z" fill="#414141"/>
</svg>
