<svg width="24" height="21" viewBox="0 0 24 21" fill="none" xmlns="http://www.w3.org/2000/svg">
<path fill-rule="evenodd" clip-rule="evenodd" d="M12.7046 2.25644C13.8299 1.13067 15.3564 0.498169 16.9482 0.498169C18.5399 0.498169 20.0664 1.13063 21.1916 2.25636C22.3174 3.38164 22.95 4.90829 22.95 6.49999C22.95 8.09174 22.3175 9.61826 21.1917 10.7435C21.1917 10.7436 21.1917 10.7435 21.1917 10.7435L12.3517 19.5835C12.1565 19.7788 11.8399 19.7788 11.6446 19.5835L2.80461 10.7435C0.460963 8.3999 0.460963 4.60009 2.80461 2.25644C5.14826 -0.0872086 8.94807 -0.0872087 11.2917 2.25644L11.9982 2.96289L12.7046 2.25644C12.7046 2.25641 12.7046 2.25647 12.7046 2.25644ZM16.9482 1.49817C15.6217 1.49817 14.3496 2.02528 13.4118 2.96346L12.3517 4.02355C12.258 4.11732 12.1308 4.16999 11.9982 4.16999C11.8656 4.16999 11.7384 4.11732 11.6446 4.02355L10.5846 2.96355C8.63149 1.01042 5.46484 1.01042 3.51172 2.96355C1.55859 4.91667 1.55859 8.08332 3.51172 10.0364L11.9982 18.5229L20.4846 10.0364C21.4228 9.09869 21.95 7.82648 21.95 6.49999C21.95 5.17351 21.4229 3.90138 20.4847 2.96363C19.5469 2.02544 18.2747 1.49817 16.9482 1.49817Z" fill="#414141"/>
<path d="M12.7046 2.25644C13.8299 1.13067 15.3564 0.498169 16.9482 0.498169C18.5399 0.498169 20.0664 1.13063 21.1916 2.25636M12.7046 2.25644L11.9982 2.96289L11.2917 2.25644C8.94807 -0.0872087 5.14826 -0.0872086 2.80461 2.25644C0.460963 4.60009 0.460963 8.3999 2.80461 10.7435L11.6446 19.5835C11.8399 19.7788 12.1565 19.7788 12.3517 19.5835L21.1917 10.7435M12.7046 2.25644C12.7046 2.25647 12.7046 2.25641 12.7046 2.25644ZM21.1916 2.25636C21.1916 2.25633 21.1917 2.25639 21.1916 2.25636ZM21.1916 2.25636C22.3174 3.38164 22.95 4.90829 22.95 6.49999C22.95 8.09174 22.3175 9.61826 21.1917 10.7435M21.1917 10.7435C21.1917 10.7435 21.1917 10.7436 21.1917 10.7435ZM13.4118 2.96346C14.3496 2.02528 15.6217 1.49817 16.9482 1.49817C18.2747 1.49817 19.5469 2.02544 20.4847 2.96363C21.4229 3.90138 21.95 5.17351 21.95 6.49999C21.95 7.82648 21.4228 9.09869 20.4846 10.0364L11.9982 18.5229L3.51172 10.0364C1.55859 8.08332 1.55859 4.91667 3.51172 2.96355C5.46484 1.01042 8.63149 1.01042 10.5846 2.96355L11.6446 4.02355C11.7384 4.11732 11.8656 4.16999 11.9982 4.16999C12.1308 4.16999 12.258 4.11732 12.3517 4.02355L13.4118 2.96346Z" stroke="#FF0000" stroke-linecap="round" stroke-linejoin="round"/>
</svg>
